# xmcd
#
# Track frame offsets:
#	150
#	15953
#	28179
#	41259
#	54241
#	71145
#	81610
#	95594
#	108752
#	122206
#	134420
#	147792
#	159678
#	173615
#
# Disc length: 2499 seconds
#
# Revision: 1
# Processed by: cddbd v1.5.2PL0 Copyright (c) Steve Scherf et al.
# Submitted via: audiograbber 1.83.01
#
DISCID=b809c10e
DTITLE=TOMMY WEBB - HEARTLAND
DYEAR=2009
DGENRE=Bluegrass
TTITLE0=TEARDROP INN
TTITLE1=EVERYTHING YOU DO
TTITLE2=WHAT YOU WEREN'T THINKING OF
TTITLE3=HEARTLAND
TTITLE4=NO ROOM INSIDE YOUR HEART
TTITLE5=RIVER OF JORDAN
TTITLE6=SOMETHING IN MY HEART
TTITLE7=IF IT WEREN'T FOR BLUEGRASS MUSIC (I'D GO CRAZY)
TTITLE8=SHE TOLD ME
TTITLE9=LITTLE SADIE
TTITLE10=A HARD ROW TO HOE
TTITLE11=FALL UPON HIM
TTITLE12=GOOD DAY TO RUN
TTITLE13=CLINCH MOUNTAIN BACKSTEP
EXTD=
EXTT0=
EXTT1=
EXTT2=
EXTT3=
EXTT4=
EXTT5=
EXTT6=
EXTT7=
EXTT8=
EXTT9=
EXTT10=
EXTT11=
EXTT12=
EXTT13=
PLAYORDER=
